<svg xmlns="http://www.w3.org/2000/svg" viewBox="0 0 48 48" width="48px" height="48px"><path fill="#ffb74d" d="M29.379,24.5H25c-0.828,0-1.5,0.672-1.5,1.5s0.672,1.5,1.5,1.5h5c0.397,0,0.779-0.158,1.061-0.439"/><path fill="#7e8ccf" d="M35,20c-1.075,0-2.01,0.57-2.54,1.419L29.379,24.5l1.682,2.561L32,26.121V30h6v-7 C38,21.343,36.657,20,35,20z"/><path fill="#b2aead" d="M40.002,44c-0.68,0-1.342-0.346-1.717-0.971l-3-5c-0.129-0.216-0.217-0.453-0.258-0.7l-1-6 c-0.182-1.09,0.555-2.12,1.644-2.302c1.098-0.186,2.12,0.556,2.302,1.644l0.938,5.626l2.805,4.674 c0.568,0.947,0.262,2.176-0.686,2.744C40.707,43.908,40.352,44,40.002,44z"/><circle cx="34.5" cy="15.5" r="3.5" fill="#ffb74d"/><path fill="#d2ccc9" d="M32,29v1h-3c-0.607,0-1.183,0.276-1.562,0.751l-4,5c-0.69,0.862-0.551,2.121,0.312,2.811 C24.119,38.856,24.56,39,24.999,39c0.586,0,1.168-0.257,1.562-0.751L29.961,34H35c1.657,0,3-1.343,3-3v-2H32z"/><g><path fill="#455a64" d="M21,36h-4c-0.55,0-1,0.45-1,1v6c0,0.55,0.45,1,1,1h4c0.55,0,1-0.45,1-1v-6C22,36.45,21.55,36,21,36 z"/><path fill="#ffc107" d="M24,7.5V38c0,0,0,2-2,2H0V5h21.5C22.88,5,24,6.12,24,7.5z"/><path fill="#fff8e1" d="M18.5,31c-1.38,0-2.5,1.12-2.5,2.5s1.12,2.5,2.5,2.5s2.5-1.12,2.5-2.5S19.88,31,18.5,31z"/><path fill="#9fa8da" d="M22,8.5v16c0,1.27-0.95,2.32-2.17,2.48C19.72,26.99,19.61,27,19.5,27H0V7h20.5 C21.33,7,22,7.67,22,8.5z"/><path fill="#263238" d="M22,8.5V13H0V7h20.5C21.33,7,22,7.67,22,8.5z"/><path fill="#64dd17" d="M9,9v2h4V9H9z M0,9v2h7V9H0z"/><path fill="#7986cb" d="M17.5,18h-5c-0.83,0-1.5,0.67-1.5,1.5V27h8v-7.5C19,18.67,18.33,18,17.5,18z M3.5,18H0v9h5v-7.5 C5,18.67,4.33,18,3.5,18z"/><path fill="#3949ab" d="M12.43,27C12.164,26.703,12,26.363,12,26c0-1.084,1.374-2,3-2s3,0.916,3,2 c0,0.363-0.164,0.703-0.43,1h2.252C19.927,26.679,20,26.348,20,26c0-2.206-2.243-4-5-4s-5,1.794-5,4c0,0.348,0.073,0.679,0.178,1 H12.43z"/></g></svg>