<svg width="12" height="12" viewBox="0 0 12 12" fill="none" xmlns="http://www.w3.org/2000/svg">
<path d="M8.0625 1.125H7.5C7.5 1.02554 7.46049 0.930161 7.39017 0.859835C7.31984 0.789509 7.22446 0.75 7.125 0.75H4.875C4.77554 0.75 4.68016 0.789509 4.60984 0.859835C4.53951 0.930161 4.5 1.02554 4.5 1.125H3.9375C3.58971 1.12599 3.25644 1.26459 3.01052 1.51052C2.76459 1.75644 2.62599 2.08971 2.625 2.4375V8.22656C2.625 9.05391 6 9.75 6 9.75C6 9.75 9.375 9.05391 9.375 8.22656V2.4375C9.375 2.0894 9.23672 1.75556 8.99058 1.50942C8.74444 1.26328 8.4106 1.125 8.0625 1.125V1.125ZM6 8.25C5.7775 8.25 5.55999 8.18402 5.37498 8.0604C5.18998 7.93679 5.04578 7.76109 4.96064 7.55552C4.87549 7.34995 4.85321 7.12375 4.89662 6.90552C4.94002 6.68729 5.04717 6.48684 5.2045 6.3295C5.36184 6.17217 5.56229 6.06502 5.78052 6.02162C5.99875 5.97821 6.22495 6.00049 6.43052 6.08564C6.63609 6.17078 6.81179 6.31498 6.9354 6.49998C7.05902 6.68499 7.125 6.9025 7.125 7.125C7.125 7.42337 7.00647 7.70952 6.7955 7.9205C6.58452 8.13147 6.29837 8.25 6 8.25ZM8.25 4.5C8.25 4.59946 8.21049 4.69484 8.14017 4.76516C8.06984 4.83549 7.97446 4.875 7.875 4.875H4.125C4.02554 4.875 3.93016 4.83549 3.85984 4.76516C3.78951 4.69484 3.75 4.59946 3.75 4.5V3C3.75 2.90054 3.78951 2.80516 3.85984 2.73484C3.93016 2.66451 4.02554 2.625 4.125 2.625H7.875C7.97446 2.625 8.06984 2.66451 8.14017 2.73484C8.21049 2.80516 8.25 2.90054 8.25 3V4.5Z" stroke="black" stroke-linecap="round" stroke-linejoin="round"/>
<path d="M3.375 10.875H8.625" stroke="black" stroke-linecap="round" stroke-linejoin="round"/>
<path d="M7.875 10.125L9 11.25" stroke="black" stroke-linecap="round" stroke-linejoin="round"/>
<path d="M4.125 10.125L3 11.25" stroke="black" stroke-linecap="round" stroke-linejoin="round"/>
</svg>
