<?xml version="1.0" encoding="UTF-8"?>
<svg xmlns="http://www.w3.org/2000/svg" xmlns:xlink="http://www.w3.org/1999/xlink" width="50pt" height="50pt" viewBox="0 0 50 50" version="1.1">
<g id="surface8229510">
<path style=" stroke:none;fill-rule:nonzero;fill:rgb(90.588235%,29.803922%,23.529412%);fill-opacity:1;" d="M 19.875 2 C 19.691406 2.023438 19.519531 2.101562 19.375 2.21875 L 12.34375 8 L 8 8 C 7.449219 8 7 8.449219 7 9 L 7 12 C 7 12.550781 7.449219 13 8 13 L 42 13 C 42.554688 13 43 12.550781 43 12 L 43 9 C 43 8.449219 42.554688 8 42 8 L 39 8 L 32.46875 3.34375 C 32.289062 3.207031 32.066406 3.152344 31.84375 3.1875 C 31.789062 3.203125 31.738281 3.222656 31.6875 3.25 L 25.28125 6 L 20.625 2.21875 C 20.414062 2.046875 20.144531 1.96875 19.875 2 Z M 20 4.28125 L 24.59375 8 L 15.5 8 Z M 31.90625 4.9375 L 36.21875 8 L 27.75 8 L 26.71875 7.15625 Z M 8.34375 15 L 12.59375 37.5625 L 12.6875 38 L 13.40625 41.90625 C 13.90625 44.277344 15.984375 46 18.3125 46 L 31.6875 46 C 34.101562 46 36.226562 44.210938 36.59375 41.875 L 37.40625 37.5625 L 41.65625 15 L 39.40625 15 L 37.40625 17 L 38.9375 18.53125 L 38.5 20.90625 L 36 18.40625 L 31.90625 22.5 L 36 26.59375 L 37.59375 25 C 37.640625 24.953125 37.699219 24.941406 37.75 24.90625 L 36.75 30.15625 L 36 29.40625 L 31.90625 33.5 L 35.46875 37.03125 L 34.78125 40.625 L 31.40625 44 L 28.59375 44 L 25 40.40625 L 21.40625 44 L 18.59375 44 L 15.21875 40.625 L 14.53125 37.03125 L 18.09375 33.5 L 14 29.40625 L 13.25 30.15625 L 12.25 24.90625 C 12.300781 24.941406 12.359375 24.953125 12.40625 25 L 14 26.59375 L 18.09375 22.5 L 14 18.40625 L 11.5 20.90625 L 11.0625 18.53125 L 12.59375 17 L 10.59375 15 Z M 17.40625 15 L 15.40625 17 L 19.5 21.09375 L 23.59375 17 L 21.59375 15 Z M 28.40625 15 L 26.40625 17 L 30.5 21.09375 L 34.59375 17 L 32.59375 15 Z M 25 18.40625 L 20.90625 22.5 L 25 26.59375 L 29.09375 22.5 Z M 19.5 23.90625 L 15.40625 28 L 19.5 32.09375 L 23.59375 28 Z M 30.5 23.90625 L 26.40625 28 L 30.5 32.09375 L 34.59375 28 Z M 25 29.40625 L 20.90625 33.5 L 25 37.59375 L 29.09375 33.5 Z M 19.5 34.90625 L 15.90625 38.5 L 20 42.59375 L 23.59375 39 Z M 30.5 34.9375 L 26.40625 39 L 30 42.59375 L 34.09375 38.5 Z M 30.5 34.9375 "/>
</g>
</svg>
