<svg width="1055px" height="257px" viewBox="0 0 1055 257" version="1.1" xmlns="http://www.w3.org/2000/svg" xmlns:xlink="http://www.w3.org/1999/xlink">
      <title>logo-waratah-transport-text</title>
    <desc>logo waratah transport</desc>

    <defs>
        <linearGradient x1="-0.00527004988%" y1="49.9540775%" x2="100.035963%" y2="49.9540775%" id="linearGradient-1">
            <stop stop-color="#E4022D" offset="0%"></stop>
            <stop stop-color="#E61E23" offset="10.57%"></stop>
            <stop stop-color="#E94514" offset="27.82%"></stop>
            <stop stop-color="#EB5D0B" offset="41.57%"></stop>
            <stop stop-color="#EC6608" offset="50%"></stop>
            <stop stop-color="#FBBA00" offset="100%"></stop>
        </linearGradient>
        <linearGradient x1="0.197968397%" y1="49.8696304%" x2="100.440181%" y2="49.8696304%" id="linearGradient-2">
            <stop stop-color="#95C11E" offset="0%"></stop>
            <stop stop-color="#8CBF21" offset="12.6%"></stop>
            <stop stop-color="#74B929" offset="33.16%"></stop>
            <stop stop-color="#4CB035" offset="59.1%"></stop>
            <stop stop-color="#16A346" offset="89.15%"></stop>
            <stop stop-color="#009E4D" offset="100%"></stop>
        </linearGradient>
        <linearGradient x1="-0.00799797752%" y1="50.0374994%" x2="99.9252802%" y2="50.0374994%" id="linearGradient-3">
            <stop stop-color="#00A7E7" offset="0%"></stop>
            <stop stop-color="#008ED3" offset="23.28%"></stop>
            <stop stop-color="#007AC2" offset="49.36%"></stop>
            <stop stop-color="#006DB7" offset="75.13%"></stop>
            <stop stop-color="#0069B4" offset="100%"></stop>
        </linearGradient>
    </defs>
    <g id="Page-1" stroke="none" stroke-width="1" fill="none" fill-rule="evenodd">
        <g id="Waratah_TFNSW_Trans_Rel1_Hor_Grad_RGB" fill-rule="nonzero">
            <path d="M284,236.8 C282.857143,236.8 282,235.9 282,234.7 L282,18.9 C282,17.7 282.857143,16.8 284,16.8 C285.142857,16.8 286,17.7 286,18.9 L286,234.7 C286,235.8 285.142857,236.8 284,236.8" id="Shape" fill="#002664"></path>
            <g id="Group">
                <path d="M201.3,142.3 L191.5,184.1 L181.2,142.3 L167.1,142.3 L156.7,183.6 L147.2,142.3 L131.8,142.3 L148.8,207.5 L164,207.5 L174,166.2 L184.2,207.5 L199.1,207.5 L199.2,206.9 L216.4,142.2 L201.3,142.2 L201.3,142.3 Z M60,184 L24.3,142.3 L9.3,142.3 L9.3,207.5 L24,207.5 L24,165.9 L59.6,207.5 L74.8,207.5 L74.8,142.3 L60,142.3 L60,184 Z" id="Shape" fill="#002664"></path>
                <g transform="translate(7.000000, 217.000000)" fill="#002664" id="Shape">
                    <path d="M0.7,10.5 C0.7,4.8 5,0 11.2,0 C14.7,0 16.9,1 19,2.7 L16.7,5.4 C15.1,4.1 13.6,3.2 11,3.2 C7.3,3.2 4.4,6.5 4.4,10.3 L4.4,10.4 C4.4,14.6 7.1,17.6 11.3,17.6 C13.2,17.6 14.9,17 16.2,16.1 L16.2,12.3 L11,12.3 L11,9.2 L19.6,9.2 L19.6,17.7 C17.6,19.4 14.7,20.8 11.1,20.8 C4.9,20.9 0.7,16.4 0.7,10.5"></path>
                    <path d="M39.3,10.5 C39.3,6.5 36.4,3.3 32.4,3.3 C28.4,3.3 25.6,6.5 25.6,10.4 L25.6,10.5 C25.6,14.4 28.5,17.7 32.5,17.7 C36.5,17.7 39.3,14.5 39.3,10.5 M21.8,10.5 C21.8,4.8 26.2,0 32.4,0 C38.6,0 43,4.7 43,10.4 L43,10.5 C43,16.2 38.6,20.9 32.4,20.9 C26.2,20.9 21.8,16.2 21.8,10.5"></path>
                </g>
                <polygon id="Shape" fill="#002664" points="49.8 217.4 53.7 217.4 59.9 232.9 65.9 217.4 69.8 217.4 61.4 237.7 58.2 237.7"></polygon>
                <polygon id="Shape" fill="#002664" points="72.2 217.4 87.2 217.4 87.2 220.6 75.8 220.6 75.8 225.8 85.9 225.8 85.9 229 75.8 229 75.8 234.4 87.4 234.4 87.4 237.6 72.2 237.6"></polygon>
                <path d="M99.6,227.4 C102.1,227.4 103.8,226.1 103.8,224 C103.8,221.8 102.2,220.7 99.6,220.7 L94.4,220.7 L94.4,227.5 L99.6,227.5 L99.6,227.4 Z M90.9,217.4 L99.9,217.4 C102.4,217.4 104.5,218.2 105.8,219.4 C106.9,220.5 107.5,222 107.5,223.8 L107.5,223.9 C107.5,227.2 105.5,229.2 102.7,230 L108.2,237.6 L104,237.6 L99,230.6 L94.5,230.6 L94.5,237.6 L90.9,237.6 L90.9,217.4 Z" id="Shape" fill="#002664"></path>
                <polygon id="Shape" fill="#002664" points="110.6 217.4 113.9 217.4 124.7 231.3 124.7 217.4 128.2 217.4 128.2 237.6 125.3 237.6 114.1 223.2 114.1 237.6 110.6 237.6"></polygon>
                <polygon id="Shape" fill="#002664" points="131.9 217.4 135.7 217.4 141.8 226.9 148 217.4 151.8 217.4 151.8 237.6 148.2 237.6 148.2 223.1 141.8 232.6 141.7 232.6 135.4 223.1 135.4 237.6 131.9 237.6"></polygon>
                <polygon id="Shape" fill="#002664" points="155.2 217.4 170.2 217.4 170.2 220.6 158.8 220.6 158.8 225.8 168.9 225.8 168.9 229 158.8 229 158.8 234.4 170.4 234.4 170.4 237.6 155.2 237.6"></polygon>
                <polygon id="Shape" fill="#002664" points="173.9 217.4 177.2 217.4 188.1 231.3 188.1 217.4 191.6 217.4 191.6 237.6 188.6 237.6 177.4 223.2 177.4 237.6 173.9 237.6"></polygon>
                <polygon id="Shape" fill="#002664" points="200.8 220.7 194.4 220.7 194.4 217.4 210.9 217.4 210.9 220.7 204.4 220.7 204.4 237.6 200.8 237.6"></polygon>
                <path d="M78.8,198.4 L87.5,188.1 C93.5,193 99.8,196.2 107.4,196.2 C113.4,196.2 117,193.8 117,189.9 L117,189.7 C117,186 114.7,184.1 103.6,181.3 C90.2,177.9 81.5,174.2 81.5,161 L81.5,160.8 C81.5,148.8 91.2,140.8 104.8,140.8 C114.5,140.8 122.8,143.8 129.5,149.2 L121.9,160.2 C116,156.1 110.2,153.7 104.6,153.7 C99,153.7 96,156.3 96,159.5 L96,159.7 C96,164.1 98.8,165.5 110.4,168.4 C123.9,171.9 131.5,176.7 131.5,188.3 L131.5,188.5 C131.5,201.7 121.4,209 107.1,209 C97,209 86.8,205.5 78.8,198.4" id="Shape" fill="#002664"></path>
                <g fill="#C60C30" id="Shape">
                    <path d="M52.2,99 C57.9,108.9 65.4,115.5 73.9,118.3 C76.6,119.2 79.4,119.7 82.2,119.8 C81.7,119.4 81.1,118.9 80.5,118.5 C76.3,114.9 71.7,109.4 69.1,101.4 C66.3,92.8 64.9,82.6 64.9,71.1 C64.9,55.2 67.6,41.6 68.4,37.9 C68.4,37.8 68.4,37.7 68.4,37.7 C68.9,35.5 70.2,33.7 71.9,32.8 C71.1,32.3 70.4,31.8 69.6,31.4 C58.5,24.5 49.2,20.5 47.4,19.7 C46.2,19.1 45.5,18.9 45.5,18.9 C45.1,18.7 44.6,18.6 44.2,18.6 C42.8,18.6 42,19.4 41.7,21 C41.7,21 41.4,23.4 41,27.4 C40.7,31.1 40.2,37 40.2,43.9 C40.2,45.7 40.2,47.7 40.3,49.7 C41,64.8 43.6,83.9 52.2,99 Z"></path>
                    <path d="M121.3,122.1 C124.1,122.1 127.4,121.4 130.8,119.8 C131.5,119.5 132.3,119.1 133,118.7 C139.3,115.3 145.4,109.1 148.3,99.9 C150.9,91.7 152.2,81.9 152.2,71 C152.2,57.4 150.2,45.6 149.4,41.1 C149.1,39.5 148.9,38.6 148.9,38.6 C148.7,37.8 148.3,36.8 147.6,36.8 C147.3,36.8 147,36.9 146.6,37.2 C146.6,37.2 146.2,37.5 145.5,38.1 C144.8,38.7 143.8,39.5 142.5,40.7 C140.7,42.3 137,45.7 132.7,50.4 C125.9,58 116.8,69.9 112.5,83.7 C110,91.8 108.8,98.7 108.8,104.4 C108.8,108.7 109.4,112.3 110.8,115.1 C112.1,117.9 114.1,119.9 116.9,121.2 C118,121.8 119.6,122.1 121.3,122.1 Z"></path>
                    <path d="M108.6,80.1 C108.7,79.8 108.8,79.5 108.9,79.2 C99.9,56.9 79.1,40 76.8,38.1 C76.1,37.5 75.7,37.2 75.7,37.2 C75.3,36.9 74.9,36.8 74.6,36.8 C73.9,36.8 73.4,37.8 73.2,38.6 C73.2,38.8 73,39.6 72.7,41.1 C72.5,42.2 72,44.7 71.5,48.1 C70.7,53.5 69.8,61.8 69.8,71 C69.8,82.1 71.1,91.8 73.7,99.9 C76.7,109.4 83.4,115.7 90,119.1 C90.3,119.2 90.6,119.3 90.9,119.5 C94.6,121.3 98.3,122.1 101.3,122.1 L101.4,122.1 C103.2,122.1 104.8,121.8 106.1,121.3 C106.8,121 107.5,120.7 108.2,120.2 C107.6,119.3 107,118.4 106.5,117.4 C104.8,114 104,109.8 104,104.6 C104,98.2 105.4,90.8 108,82.5 C108.1,81.6 108.4,80.8 108.6,80.1 Z"></path>
                    <path d="M111.4,73.2 C116,63.3 123.1,53.4 132.4,43.8 C129.8,36 126.8,28.8 123.9,22.6 C119.7,13.6 115.7,6.7 113.6,3.2 C112.8,2 112.5,1.4 112.5,1.4 C111.8,0.3 111.2,0.2 111,0.2 C110.5,0.2 110,0.6 109.5,1.4 C109.5,1.4 109.1,2 108.4,3.2 C107.4,4.9 106.4,6.6 105.4,8.3 C103.6,11.5 100.9,16.4 98.1,22.5 C97.5,23.8 96.9,25.2 96.2,26.6 C93.8,32 91.6,37.7 89.7,43.4 C96.4,50 105.4,60.5 111.4,73.2 Z"></path>
                    <path d="M149.9,32.7 C151.6,33.6 152.9,35.3 153.4,37.6 C153.4,37.7 153.4,37.7 153.4,37.8 C154.2,41.6 156.8,55.2 156.8,71 C156.8,82.4 155.4,92.6 152.7,101.3 C150.1,109.4 145.7,114.8 141.5,118.4 C141,118.9 140.4,119.3 139.9,119.7 C142.6,119.6 145.2,119 147.8,118.2 C156.3,115.4 163.8,108.8 169.6,98.9 C178.3,83.8 180.9,64.5 181.4,49.4 C181.5,47.5 181.5,45.6 181.5,43.8 C181.5,38.2 181.2,32.7 180.7,27.2 C180.3,23.2 180,20.8 180,20.8 C179.7,19.2 178.9,18.4 177.5,18.4 C177.2,18.4 176.8,18.5 176.2,18.7 C176.2,18.7 175.5,18.9 174.4,19.5 C173.2,20 171.7,20.7 169.8,21.6 L169.1,21.9 C163.3,24.7 157.7,27.8 152.3,31.2 C152.1,31.3 152,31.4 151.8,31.5 C151.2,31.9 150.5,32.3 149.9,32.7 Z"></path>
                    <path d="M135.2,37.3 C140,33.5 145.3,29.9 151.3,26.3 C151.6,26.1 151.9,25.9 152.3,25.7 C150.5,16.6 148.4,9.9 147.6,7.4 C147.6,7.3 147.6,7.3 147.5,7.2 C147,5.9 146.2,5.2 145.1,5.2 C145,5.2 144.8,5.2 144.6,5.2 C144.2,5.2 143.9,5.4 143.5,5.6 C143.5,5.6 140.9,7.2 136.9,10 C134.7,11.6 131.2,14.2 126.9,17.7 C127.2,18.4 127.5,19.1 127.9,19.8 C130.6,25.7 133,31.5 135.2,37.3 Z"></path>
                    <path d="M86.7,37.3 C88.7,31.6 91.2,25.7 94,19.8 C94.3,19.1 94.6,18.5 94.9,17.8 C91.5,15 88.2,12.4 84.9,10.1 C80.9,7.3 78.4,5.7 78.3,5.7 C77.9,5.4 77.6,5.3 77.2,5.3 C77,5.3 76.9,5.3 76.7,5.3 C75.6,5.3 74.8,6 74.3,7.3 C74.3,7.3 74.3,7.4 74.2,7.5 C73.4,10 71.3,16.8 69.5,25.8 C69.9,26 70.2,26.2 70.6,26.5 C76.7,29.9 81.9,33.5 86.7,37.3 Z"></path>
                    <path d="M23.1,75.6 C28,73.2 32.9,71.1 37.6,69.3 C36.7,63.6 36.1,57.5 35.8,51 C35.8,50.2 35.7,49.3 35.7,48.5 C33.6,48.3 31.8,48.2 30,48.1 C26.4,47.9 23.5,47.8 21.4,47.8 C20.7,47.8 20.1,47.8 19.5,47.8 C16.1,47.8 14.1,47.9 14,47.9 C14,47.9 14,47.9 14,47.9 C12.7,48 11.4,48.7 10.6,49.9 C10.1,50.6 9.9,51.5 9.9,52.4 C10.1,54.8 11.7,63.3 22,76.2 C22.4,75.9 22.7,75.7 23.1,75.6 Z"></path>
                    <path d="M199.9,76 C210.2,63.1 211.7,54.6 212,52.2 C212.1,51.4 211.6,50.2 211.3,49.7 C210.5,48.5 209.2,47.8 207.9,47.7 C207.9,47.7 206.4,47.6 203.8,47.6 C203.4,47.6 202.9,47.6 202.4,47.6 C201.8,47.6 201.2,47.6 200.6,47.6 C198.3,47.6 195,47.7 191,48 C189.6,48.1 188,48.2 186.4,48.4 C186.4,49.3 186.3,50.1 186.3,50.9 C186.1,57.1 185.5,63.3 184.6,69.2 C189.3,71 194.2,73.1 199.2,75.6 C199.3,75.8 199.6,75.9 199.9,76 Z"></path>
                    <path d="M219.7,93.4 C219.7,93.4 219.1,93 218.1,92.3 C217.3,91.7 216.2,91 214.8,90.1 C214.4,89.9 214,89.6 213.6,89.3 C211.6,88 208.9,86.3 205.6,84.5 C205.3,84.3 205.1,84.2 204.8,84 C204.8,84 204.8,84 204.8,84 C202.6,82.8 200.2,81.5 197.7,80.2 C197.2,80 196.8,79.8 196.3,79.6 C192,77.5 187.7,75.6 183.5,74 C181.4,84.5 178.1,93.7 173.7,101.3 C169.7,108.3 164.8,113.9 159.1,117.8 C158.3,118.3 157.5,118.8 156.7,119.3 C205.4,116.7 219.2,101.1 220.6,99.3 C220.8,99 220.9,98.7 221,98.4 C221.2,97.9 221.3,97.4 221.3,96.9 C221.4,95.5 220.8,94.1 219.7,93.4 Z"></path>
                    <path d="M62.7,117.8 C57.1,113.8 52.1,108.2 48.1,101.3 C43.7,93.7 40.4,84.5 38.3,74 C33.8,75.7 29.5,77.6 25.6,79.5 C24.8,79.9 24.1,80.3 23.3,80.6 C14,85.3 7,89.9 3.6,92.3 C2.6,93 2,93.4 2,93.4 C1,94.2 0.3,95.5 0.3,96.9 C0.3,97.6 0.5,98.2 0.8,98.8 C0.9,99 0.9,99.1 1,99.3 C1,99.3 1.1,99.4 1.1,99.4 C1.2,99.5 1.3,99.6 1.4,99.8 C1.5,99.9 1.5,99.9 1.6,100 C1.9,100.4 2.7,101.2 3.9,102.2 C6,103.9 9.6,106.6 15.6,109.2 C27.9,114.7 44.9,118.2 64.9,119.3 C64.3,118.9 63.5,118.4 62.7,117.8 Z"></path>
                    <path d="M177.4,122.9 C174.9,122.9 171.2,123.4 165.6,124.2 C164.8,124.3 163.9,124.4 163,124.6 C160.6,124.9 157.6,125.1 153.6,125.1 C151.2,125.1 148.7,125.1 146,125 L145.8,125 C143.3,124.9 140.4,124.9 137.5,124.9 C135.3,124.9 132.9,125 130.3,125.1 C127,125.3 123.5,125.7 120.1,126.3 C119,126.5 118,126.7 116.9,127 C116.6,127.1 116.3,127.5 116.3,127.7 C116.3,127.9 116.8,128 117.1,128 C117.2,128 117.3,128 117.4,128 C120.1,127.8 122.7,127.6 125.2,127.6 C134.1,127.6 140.1,129.1 146,130.6 C151.5,132 156.7,133.3 164,133.3 C171.3,133.3 177.1,131.8 179.9,129.4 C180.1,129.3 180.3,129.1 180.4,129 C181.2,128.1 181.6,127.1 181.5,126 C181.5,125.6 181.4,125.3 181.3,125 C181.1,123.5 180.2,122.9 177.4,122.9 Z"></path>
                    <path d="M104.9,126.9 C103.9,126.6 102.8,126.4 101.7,126.2 C98.4,125.5 95,125.1 91.7,125 C89.1,124.9 86.6,124.8 84.4,124.8 C81.5,124.8 78.7,124.9 76.1,124.9 L75.9,124.9 C73.2,125 70.7,125 68.3,125 C64.3,125 61.4,124.8 58.9,124.5 C58,124.4 57.1,124.3 56.2,124.1 C50.6,123.3 46.9,122.8 44.5,122.8 C42,122.8 41,123.3 40.6,124.4 C40.4,124.8 40.3,125.3 40.3,125.8 C40.2,126.9 40.6,127.9 41.4,128.8 C41.7,129.2 42.2,129.5 42.7,129.9 C45.7,132 51.2,133.2 57.8,133.2 C65,133.2 70.3,131.9 75.8,130.5 C81.7,129 87.7,127.5 96.6,127.5 C99.1,127.5 101.7,127.6 104.4,127.9 C104.5,127.9 104.6,127.9 104.7,127.9 C105.1,127.9 105.5,127.8 105.5,127.6 C105.5,127.4 105.2,127 104.9,126.9 Z"></path>
                </g>
            </g>
            <path d="M671.1,164.3 L671.1,170 C671.1,172.3 669.2,174.2 666.9,174.2 L648.1,174.2 L648.1,232.5 C648.1,234.8 646.2,236.7 643.9,236.7 L635.5,236.7 C633.2,236.7 631.3,234.8 631.3,232.5 L631.3,174.2 L612.5,174.2 C610.2,174.2 608.3,172.3 608.3,170 L608.3,164.3 C608.3,162 610.2,160.1 612.5,160.1 L666.9,160.1 C669.2,160.1 671.1,162 671.1,164.3 Z M1004.7,211.8 C1004.7,209.3 1004.9,207 1005.5,204.8 C1006,202.6 1006.8,200.8 1008,199.2 C1009.2,197.6 1010.7,196.3 1012.7,195.4 C1014.6,194.5 1017,194 1019.8,194 C1019.9,194 1020,194 1020.1,194 L1021,194 C1023.3,194 1025.2,192.1 1025.2,189.8 L1025.2,184 C1025.2,183.5 1025.1,183 1024.9,182.6 C1024.3,181.1 1022.9,179.9 1021.2,179.8 C1021.2,179.8 1021.1,179.8 1021,179.8 C1019.9,179.8 1018.7,180 1017.7,180.2 C1016.9,180.4 1016.3,180.6 1016.3,180.6 C1014.5,181.2 1012.8,182 1011.3,183 C1009.7,184 1008.3,185.3 1007.1,186.8 C1005.9,188.3 1004.9,189.9 1004.2,191.6 L1004,191.6 L1004,185.5 C1004,183.2 1002.1,181.3 999.8,181.3 L993.7,181.3 C991.4,181.3 989.5,183.2 989.5,185.5 L989.5,232.6 C989.5,234.9 991.4,236.8 993.7,236.8 L1000.5,236.8 C1002.8,236.8 1004.7,234.9 1004.7,232.6 L1004.7,211.8 Z M677.2,211.8 C677.2,209.3 677.5,207 677.9,204.8 C678.4,202.7 679.3,200.8 680.4,199.2 C681.6,197.6 683.1,196.3 685.1,195.4 C687,194.5 689.4,194 692.2,194 C692.3,194 692.4,194 692.5,194 L693.4,194 C695.7,194 697.6,192.1 697.6,189.8 L697.6,184 C697.6,183.5 697.5,183 697.3,182.6 C696.7,181.1 695.3,179.9 693.6,179.8 C693.6,179.8 693.5,179.8 693.4,179.8 C692.3,179.8 691.1,180 690,180.2 C689.2,180.4 688.6,180.6 688.6,180.6 C686.8,181.2 685.1,182 683.6,183 C682,184 680.6,185.3 679.4,186.8 C678.2,188.3 677.2,189.9 676.5,191.6 L676.3,191.6 L676.3,185.5 C676.3,183.2 674.4,181.3 672.1,181.3 L666.1,181.3 C663.8,181.3 661.9,183.2 661.9,185.5 L661.9,232.6 C661.9,234.9 663.8,236.8 666.1,236.8 L672.9,236.8 C675.2,236.8 677.1,234.9 677.1,232.6 L677.1,211.8 L677.2,211.8 Z M807.3,193.3 C806.7,190.5 805.6,188.1 804.1,186.1 C802.6,184.1 800.5,182.6 797.9,181.5 C795.3,180.4 791.9,179.8 787.9,179.8 C784.7,179.8 781.5,180.5 778.4,182 C775.3,183.5 772.8,185.8 770.9,189 L770.6,189 L770.6,185.1 C770.6,183 768.7,181.2 766.4,181.2 L760.4,181.2 C758.1,181.2 756.2,183.1 756.2,185.4 L756.2,232.5 C756.2,234.8 758.1,236.7 760.4,236.7 L767.2,236.7 C769.5,236.7 771.4,234.8 771.4,232.5 L771.4,207.6 C771.4,202.4 772.2,198.5 773.8,196 C773.9,195.8 774.1,195.6 774.2,195.4 C776.1,192.9 779.1,191.7 783.2,191.7 C786.8,191.7 789.4,192.8 790.8,195.1 C792.2,197.3 792.9,200.8 792.9,205.4 L792.9,232.6 C792.9,234.9 794.8,236.8 797.1,236.8 L803.9,236.8 C806.2,236.8 808.1,234.9 808.1,232.6 L808.1,206.9 C808.2,196.8 807.4,193.9 807.3,193.3 Z M861.7,212.8 C860.7,211 859.4,209.6 857.7,208.4 C856,207.2 854.1,206.3 852,205.5 C849.9,204.8 847.7,204.2 845.5,203.7 C843.3,203.2 841.2,202.7 839.1,202.3 C837,201.9 835.1,201.4 833.5,200.8 C831.9,200.3 830.6,199.6 829.5,198.7 C828.5,197.8 828,196.7 828,195.3 C828,194.1 828.3,193.2 828.9,192.5 C829.5,191.8 830.2,191.3 831,190.9 C831.8,190.5 832.7,190.3 833.8,190.2 C834.8,190.1 835.7,190 836.6,190 C839.3,190 841.7,190.5 843.7,191.6 C845,192.3 845.9,193.3 846.5,194.8 C846.5,194.9 846.5,194.9 846.6,195 C847.2,196.6 848.8,197.7 850.5,197.7 L857.5,197.7 C859.8,197.7 861.4,195.8 861,193.5 C861,193.5 860.6,191.4 859.1,189.1 C857.6,186.8 855.8,185 853.5,183.6 C851.3,182.2 848.7,181.3 845.9,180.7 C843,180.1 840.1,179.8 837.1,179.8 C834.1,179.8 831.1,180.1 828.2,180.6 C825.3,181.1 822.7,182.1 820.4,183.4 C818.1,184.7 816.2,186.6 814.8,188.9 C813.4,191.2 812.7,194.2 812.7,197.8 C812.7,200.2 813.2,202.3 814.2,204 C815.2,205.7 816.5,207.1 818.2,208.2 C819.9,209.3 821.8,210.2 823.9,210.9 C826,211.6 828.2,212.2 830.4,212.7 C835.9,213.9 840.2,215 843.2,216.2 C846.3,217.4 847.8,219.1 847.8,221.4 C847.8,222.8 847.5,223.9 846.8,224.8 C846.2,225.7 845.3,226.4 844.4,227 C843.4,227.5 842.4,227.9 841.2,228.2 C840,228.5 838.9,228.6 837.8,228.6 C836.3,228.6 834.8,228.4 833.4,228.1 C832,227.7 830.7,227.2 829.7,226.4 C828.1,225.2 827.8,224.6 827.1,223.5 C826.3,222.2 826.2,219.6 822.5,219.2 L815.7,219.2 C813.4,219.2 811.7,221.1 812,223.4 C812,223.4 812.4,226.1 813.9,228.5 C815.5,231 817.4,233 819.9,234.5 C822.3,236 825.1,237.1 828.2,237.7 C831.3,238.4 834.5,238.7 837.7,238.7 C840.9,238.7 844,238.4 847.1,237.8 C850.2,237.2 852.9,236.1 855.3,234.6 C857.7,233.1 859.6,231.1 861.1,228.6 C862.6,226.1 863.3,223 863.3,219.3 C863.2,216.7 862.7,214.5 861.7,212.8 Z M927.6,209.1 C927.6,213.5 928.3,217.6 929.6,221.1 C931,224.7 932.9,227.8 935.4,230.3 C937.9,232.8 940.9,234.8 944.4,236.2 C947.9,237.6 951.9,238.2 956.2,238.2 C960.6,238.2 964.5,237.5 968.1,236.2 C971.6,234.8 974.7,232.9 977.2,230.3 C979.7,227.8 981.6,224.7 983,221.1 C984.4,217.5 985,213.5 985,209.1 C985,204.7 984.3,200.6 983,197 C981.6,193.4 979.7,190.3 977.2,187.8 C974.7,185.3 971.7,183.3 968.1,181.9 C964.5,180.5 960.6,179.8 956.2,179.8 C951.8,179.8 947.9,180.5 944.4,181.9 C940.9,183.3 937.9,185.3 935.4,187.8 C932.9,190.3 931,193.4 929.6,197 C928.3,200.7 927.6,204.7 927.6,209.1 Z M942.9,209.1 C942.9,206.9 943.1,204.7 943.5,202.6 C943.9,200.4 944.7,198.5 945.7,196.9 C946.7,195.2 948.1,193.9 949.8,192.9 C951.5,191.9 953.7,191.3 956.3,191.3 C958.9,191.3 961,191.8 962.8,192.9 C964.6,193.9 966,195.3 967,196.9 C968,198.5 968.8,200.4 969.2,202.6 C969.6,204.7 969.8,206.9 969.8,209.1 C969.8,211.3 969.6,213.5 969.2,215.6 C968.8,217.7 968,219.6 967,221.3 C966,223 964.6,224.3 962.8,225.3 C961,226.3 958.9,226.8 956.3,226.8 C953.7,226.8 951.6,226.3 949.8,225.3 C948.1,224.3 946.7,222.9 945.7,221.3 C944.7,219.6 943.9,217.7 943.5,215.6 C943.1,213.5 942.9,211.4 942.9,209.1 Z M923.6,209.7 C923.6,213.4 923.1,217 922.1,220.5 C921.1,223.9 919.6,227 917.5,229.6 C915.5,232.3 912.9,234.4 909.9,235.9 C906.8,237.5 903.3,238.3 899.2,238.3 C895.8,238.3 892.6,237.6 889.7,236.2 C889,235.9 888.3,235.5 887.7,235.1 C887.6,235 887.6,235 887.5,235 C887,234.7 886.6,234.3 886.1,234 C885.6,233.6 885.3,233.3 885.3,233.3 C884.3,232.2 883.4,231.2 882.9,230.6 C882.8,230.4 882.6,230.3 882.5,230.1 L882.4,230.1 L882.3,230.1 L882.3,234.3 L882.3,252.2 C882.3,254.5 880.4,256.4 878.1,256.4 L871.3,256.4 C869,256.4 867.1,254.5 867.1,252.2 L867.1,185.6 C867.1,183.3 869,181.4 871.3,181.4 L877.3,181.4 C879.6,181.4 881.5,183 881.5,184.9 L881.5,188.4 L881.7,188.4 C883.6,185.4 885.9,183.2 888.8,181.8 C891.7,180.4 894.8,179.8 898.3,179.8 C902.7,179.8 906.4,180.6 909.6,182.3 C912.7,184 915.4,186.1 917.4,188.9 C919.5,191.6 921,194.8 922,198.4 C923.1,202 923.6,205.7 923.6,209.7 Z M908.4,209.3 C908.4,207.1 908.2,204.9 907.7,202.7 C907.2,200.5 906.5,198.6 905.4,196.9 C904.3,195.2 902.9,193.9 901.3,192.8 C899.6,191.8 897.6,191.2 895.1,191.2 C892.6,191.2 890.5,191.7 888.8,192.8 C887.1,193.8 885.8,195.2 884.7,196.8 C883.7,198.4 882.9,200.3 882.5,202.5 C882.1,204.6 881.8,206.9 881.8,209.2 C881.8,211.4 882,213.6 882.5,215.8 C883,217.9 883.7,219.8 884.8,221.4 C885.8,223 887.2,224.3 888.9,225.3 C890.6,226.3 892.7,226.8 895.1,226.8 C897.6,226.8 899.7,226.3 901.4,225.3 C903.1,224.3 904.5,223 905.5,221.4 C906.5,219.8 907.3,217.9 907.7,215.8 C908.2,213.7 908.4,211.5 908.4,209.3 Z M1028.6,223.7 C1028.6,226.5 1029.1,228.8 1030,230.5 C1030.9,232.2 1032.2,233.5 1033.8,234.5 C1035.4,235.4 1037.3,236.1 1039.4,236.4 C1040.5,236.6 1041.5,236.7 1042.7,236.8 L1042.6,236.8 L1043.2,236.8 C1044.2,236.9 1045.1,236.9 1046.1,236.9 C1047.5,236.9 1051,236.8 1051.1,236.8 C1053.3,236.6 1055,234.8 1055,232.6 L1055,229.2 C1055,226.9 1053.1,225 1050.8,225 C1050.8,225 1050.7,225 1050.7,225 L1049.5,225 C1047.3,224.9 1045.8,224.5 1045.1,223.7 C1044.2,222.8 1043.8,221.1 1043.8,218.5 L1043.8,191 L1052.1,191 C1053.7,191 1054.9,189.7 1054.9,188.2 L1054.9,183.6 C1054.9,182 1053.6,180.8 1052.1,180.8 L1043.8,180.8 L1043.8,168.4 C1043.8,166.1 1041.9,164.2 1039.6,164.2 L1032.8,164.2 C1030.5,164.2 1028.6,166.1 1028.6,168.4 L1028.6,223.7 Z M700.3,193.5 C699.1,197.2 701.9,198.4 704.2,198.4 C706.8,198.4 710.5,198.4 710.5,198.4 C716.4,198.4 714.1,194.6 717.7,192 C719.4,190.7 721.8,190.1 724.8,190.1 C726.2,190.1 727.4,190.2 728.6,190.4 C729.8,190.6 730.8,190.9 731.7,191.5 C732.6,192 733.3,192.8 733.9,193.8 C734.4,194.8 734.7,196.1 734.7,197.7 C734.8,199.3 734.3,200.5 733.3,201.3 C732.3,202.1 730.9,202.8 729.2,203.2 C727.5,203.6 725.5,204 723.3,204.2 C721.1,204.4 718.8,204.7 716.5,205.1 C714.2,205.5 711.9,205.9 709.7,206.6 C707.4,207.2 705.4,208.1 703.7,209.3 C701.9,210.5 700.5,212.1 699.4,214.2 C698.3,216.2 697.7,218.8 697.7,222 C697.7,224.9 698.2,227.3 699.2,229.4 C700.2,231.5 701.5,233.2 703.2,234.6 C704.9,236 706.9,237 709.2,237.6 C711.5,238.3 714,238.6 716.6,238.6 C720,238.6 723.4,238.1 726.7,237.1 C730,236.1 732.9,234.3 735.3,231.8 C735.4,232.7 735.4,233.7 735.7,234.6 C736.4,237.2 739.6,237.2 739.6,237.2 L747.6,237.2 C751.5,237.2 750.6,234.3 750.3,232 C750,229.7 749.9,227.3 749.9,224.8 L749.9,200.1 C749.9,197.8 749.7,194 749.4,191.7 C749.4,191.7 749.2,189.8 747.7,187.8 C746.2,185.8 744.3,184.2 741.9,183 C739.5,181.9 736.9,181.1 734.1,180.7 C731.2,180.3 728.4,180.1 725.6,180.1 C722.5,180.1 719.5,180.4 716.4,181 C713.4,181.6 710.6,182.6 708.2,184.1 C705.8,185.5 703.8,187.4 702.2,189.8 C701.4,190.7 700.8,192 700.3,193.5 Z M734.8,209.7 L734.8,211.2 C734.8,213.5 734.8,216.3 734.7,217.4 C734.7,217.4 734.7,217.4 734.5,218.8 C734.3,220.2 733.8,221.7 733,223 C732.2,224.4 731,225.6 729.3,226.6 C727.7,227.6 725.3,228.1 722.3,228.1 C721.1,228.1 719.9,228 718.8,227.8 C717.7,227.6 716.6,227.2 715.8,226.7 C714.9,226.2 714.3,225.4 713.8,224.5 C713.3,223.6 713,222.4 713,221.1 C713,219.7 713.2,218.5 713.8,217.6 C714.3,216.7 715,215.9 715.8,215.3 C716.6,214.7 717.6,214.2 718.7,213.8 C719.8,213.4 720.9,213.2 722.1,212.9 C723.3,212.7 724.5,212.5 725.8,212.4 C727,212.3 728.2,212.1 729.3,211.9 C730.4,211.7 731.4,211.4 732.4,211.1 C733.3,210.7 734.1,210.3 734.8,209.7 Z" id="Shape" fill="#939598"></path>
            <g id="Group" transform="translate(351.000000, 74.000000)">
                <path d="M0.7,150.5 C0.4,150.8 0.2,151.2 0.2,151.6 C0.2,152.5 0.9,153.2 1.8,153.2 C2.1,153.2 2.4,153.1 2.6,153 L2.7,152.9 C24.7,133.1 60.7,105.6 107.9,108 C126.2,108.9 142.8,114.7 157.9,123.3 C173.5,132.2 202.8,161.8 202.8,161.8 C206.9,166 212.6,168.9 218.7,169.6 C220.6,169.8 222.6,169.7 224.5,169.5 C225.9,169.3 227.6,169 229.1,168.5 C230.1,168.2 230.6,168 230.6,168 C232.6,167.1 244.7,161.3 242.9,146.1 C242.2,139.9 239.1,133.7 233.3,128.1 C232,126.9 190.1,79.4 110.1,86.9 C57.8,94 21.2,126.3 0.7,150.5" id="Shape" fill="url(#linearGradient-1)"></path>
                <path d="M3.3,152 C3.2,152.7 2.5,153.3 1.7,153.3 C0.8,153.3 0.1,152.6 0.1,151.7 C0.1,151.7 0.1,151.6 0.1,151.5 C1,139.4 21.9,25.7 44.4,167.5 C44.4,167.5 44.4,167.8 44.4,168 C44.4,168.4 44.3,168.7 44.3,168.7 C44.1,169.6 43.2,169.9 42.4,169.7 C41.8,169.6 41.3,169.1 41.2,168.5 C41.2,168.5 30.2,114.2 18.1,114.8 C12.9,115.2 9.1,124.6 3.2,151.9 C3.4,151.8 3.3,152 3.3,152 Z" id="Shape" fill="url(#linearGradient-2)"></path>
                <path d="M246.6,134.6 C245.1,128.2 212.6,-16.9 135.4,2.2 C117.8,6.5 104.2,21.8 93.1,36.5 C63.3,76.3 45.7,151.2 41.5,167.6 C41.2,168.6 41.9,169.4 42.7,169.5 C43.4,169.7 44.3,169.4 44.6,168.5 C46.9,159.7 53.2,138.3 56.3,129.9 C66.2,101.4 95.8,49.1 127.9,49.4 C170.3,49.8 190.6,128.3 196.4,150.2 C199.2,161.3 209.5,169.6 221.5,169.6 C235.9,169.7 247.7,158 247.8,143.6 C247.6,142.5 247.5,138.5 246.6,134.6 Z" id="Shape" fill="url(#linearGradient-3)"></path>
                <path d="M240.7,143.5 C240.6,154.3 231.9,162.9 221.1,162.9 C210.3,162.8 201.7,154.1 201.7,143.4 C201.8,132.6 210.5,124 221.2,124 C232.1,124 240.8,132.7 240.7,143.5 Z" id="Shape" fill="#00A7E7"></path>
            </g>
        </g>
    </g>
</svg>