<svg xmlns="http://www.w3.org/2000/svg" viewBox="0 0 48 48" width="48px" height="48px"><path fill="#455a64" d="M20.797,35.899h-4c-0.55,0-1,0.45-1,1v6c0,0.55,0.45,1,1,1h4c0.55,0,1-0.45,1-1v-6 C21.797,36.349,21.347,35.899,20.797,35.899z"/><path fill="#ffc107" d="M23.797,7.399v30.5c0,0,0,2-2,2h-22v-35h21.5C22.677,4.899,23.797,6.019,23.797,7.399z"/><path fill="#fff8e1" d="M18.297,30.899c-1.38,0-2.5,1.12-2.5,2.5s1.12,2.5,2.5,2.5s2.5-1.12,2.5-2.5 S19.677,30.899,18.297,30.899z"/><path fill="#9fa8da" d="M21.797,8.399v16c0,1.27-0.95,2.32-2.17,2.48c-0.11,0.01-0.22,0.02-0.33,0.02h-19.5v-20h20.5 C21.127,6.899,21.797,7.569,21.797,8.399z"/><path fill="#263238" d="M21.797,8.399v4.5h-22v-6h20.5C21.127,6.899,21.797,7.569,21.797,8.399z"/><path fill="#64dd17" d="M8.797,8.899v2h4v-2H8.797z M-0.203,8.899v2h7v-2H-0.203z"/><path fill="#7986cb" d="M17.297,17.899h-5c-0.83,0-1.5,0.67-1.5,1.5v7.5h8v-7.5 C18.797,18.569,18.127,17.899,17.297,17.899z M3.297,17.899h-3.5v9h5v-7.5C4.797,18.569,4.127,17.899,3.297,17.899z"/><path fill="#3949ab" d="M12.226,26.899c-0.266-0.297-0.43-0.637-0.43-1c0-1.084,1.374-2,3-2s3,0.916,3,2 c0,0.363-0.164,0.703-0.43,1h2.252c0.105-0.321,0.178-0.652,0.178-1c0-2.206-2.243-4-5-4s-5,1.794-5,4 c0,0.348,0.073,0.679,0.178,1H12.226z"/><g><path fill="#b2aead" d="M27.299,42.899c-0.608,0-1.209-0.276-1.602-0.8c-0.663-0.884-0.484-2.138,0.399-2.8l3.5-2.626 l1.803-5.407c0.35-1.047,1.479-1.617,2.53-1.265c1.048,0.35,1.614,1.482,1.265,2.53l-2,6c-0.129,0.386-0.372,0.723-0.697,0.967 l-4,3C28.137,42.769,27.716,42.899,27.299,42.899z"/><circle cx="38.297" cy="16.399" r="3.5" fill="#ffb74d"/><path fill="#7e8ccf" d="M45.297,24.399h-3.379l-2.561-2.561c-0.111-0.111-1.464-1.228-2.392-1.434 c-0.842-0.188-2.94-0.012-3.226,0.102l-5,2c-0.447,0.179-0.782,0.562-0.898,1.028l-1,4c-0.201,0.804,0.287,1.618,1.091,1.819 c0.123,0.03,0.245,0.045,0.365,0.045c0.672,0,1.284-0.455,1.454-1.136l0.814-3.257l2.402-0.961l-1.601,7.203l5.857,1.301 l1.564-7.037l1.447,1.447c0.281,0.281,0.663,0.439,1.061,0.439h4c0.828,0,1.5-0.672,1.5-1.5S46.125,24.399,45.297,24.399z"/><path fill="#ffb74d" d="M45.297,24.399h-3.379l-1.682,2.561c0.281,0.281,0.663,0.439,1.061,0.439h4 c0.828,0,1.5-0.672,1.5-1.5S46.125,24.399,45.297,24.399z"/><path fill="#ffb74d" d="M28.74,22.506c-0.447,0.179-0.782,0.562-0.898,1.028l-1,4c-0.201,0.804,0.287,1.618,1.091,1.819 c0.123,0.03,0.245,0.045,0.365,0.045c0.672,0,1.284-0.455,1.454-1.136l0.814-3.257L28.74,22.506z"/><path fill="#d2ccc9" d="M42.154,41.156l-2-5c-0.101-0.251-0.252-0.479-0.443-0.671l-2.593-2.593 c0.039-0.112,0.082-0.223,0.108-0.342l0.24-1.081l-5.798-1.569l-0.3,1.35c-0.33,1.487,0.512,2.949,1.906,3.456l3.318,3.318 l1.847,4.619c0.313,0.781,1.064,1.258,1.858,1.258c0.247,0,0.498-0.047,0.742-0.144C42.065,43.345,42.564,42.182,42.154,41.156z"/></g></svg>