<svg xmlns="http://www.w3.org/2000/svg" viewBox="0 0 512 512" width="48px" height="48px"><path fill="#D6E5E5" d="M143.2,238.9c-0.7,0.2-1.5,0.3-2.5,0.1c-9.8-1.6-19.6-0.9-29.4-0.9c-9.4,0-18.8-1.9-28-3.2c-13-1.8-30.8-4-40.7,7.1c-5.3,6-7.1,14-7.7,21.8c-0.7,9.3-0.3,19.2,1,28.5c0.5,3.7,1.4,8.8,5.8,9.6c6.1,1.1,12.4-0.6,18.2-2.4c10.8-3.4,21.3-6.7,32.7-7.1c9.3-0.3,19.3,0.4,28.5-2c8.4-2.2,12.7-6.6,16-14.4c3.1-7.5,5.7-15.3,6.9-23.4C144.4,249,145.3,242.7,143.2,238.9z"/><path fill="#EF4823" d="M227.7,123.2c-2.9-11.7-4-23.8-5.7-35.7c-1.8-12.1-3.7-24.2-5.1-36.4c-25.6,6.9-50.1,18-72,32.2c-22.2,14.4-42.9,32.2-58.1,53.9c-13.3,19-22.6,40.3-30.4,62c0,0.4-0.1,0.9-0.3,1.3c-2.7,8.4-5.3,16.9-7.5,25.4c3-1.1,6.2-1.9,9.4-2.4c13.8-2.1,27.8,1.3,41.4,3c12.3,1.6,24.8,0.2,37.1,1.3c0.4-0.8,1.1-1.5,1.9-1.9c0.7-2.9,1.3-5.8,2-8.7c0.8-3.5,1.9-6.9,2.9-10.3c-1.1-1.8-1.4-4.1,0.1-6.3c2.4-3.4,4.9-6.8,7.5-10.1c16.1-20.4,35.7-37.1,60.4-46c7.2-2.6,14.8-4.7,22.6-6.2C231,133.9,229,128.6,227.7,123.2z"/><path fill="#D6E5E5" d="M297.4,56.6c-0.3-7.3-1.2-15.8-9-18.7c-10.1-3.7-21.9-2.4-32.2-0.7c-9.2,1.6-18.2,3.9-27,6.9c0.5,2.1,0,4.5-1.8,5.6c1.6,13.6,3.7,27.1,5.7,40.7c1.8,11.8,2.3,24.5,6.6,35.8c3,8,8.3,14.7,17.2,16.1c9.3,1.4,20.5-0.5,27.1-7.9c12.2-13.7,9.2-33.3,11.1-50.1C296.1,75.1,297.7,65.8,297.4,56.6z"/><path fill="#EF4823" d="M227 451.1c.4-11.5-.2-22.6-1-34.1-.7-9.3-1.1-19 1.4-28.1-37.1-7.5-74.9-26-89.1-62.3-3.7-9.3-5.8-19.1-6.7-29-9.1 4.2-19.1 4.7-29 5-10.3.2-20.1.7-30 3.8-8.3 2.6-19 7.2-28.5 6.6 1.3 7.6 3 15.1 5.2 22.5 7.4 24.7 17.2 48.7 32.3 69.7 15.2 21.1 34.7 38 57.9 49.8 24 12.2 50.2 19.4 76.8 23 4.7.7 9.5 1.2 14.3 1.7C227.1 471.1 226.6 460.9 227 451.1zM434.3 122.8C402.1 83.4 357.2 54 306.6 45.7c1 4.4 1.3 9 1.2 13.4-.2 9.5-1.6 18.8-2.6 28.2-.9 8.7-.4 17.4-1.7 26.1-1.4 9.5-4.7 18.6-10.2 25.6 42.2 9.8 73.4 42.6 90.3 81.6 3.1 7.1 5.8 14.4 8 21.8 11.5-1.7 23.5-2.9 34.5-6.3 11.3-3.5 22.1-8.2 33.5-11.5 7.1-2.1 14.7-2.6 21.3-.8C473.8 187 458.4 152.4 434.3 122.8z"/><path fill="#D6E5E5" d="M485.6,240.1c-2.4-0.4-4.3-2.2-4.2-4.8c-2.5-1.7-5.7-2.6-10-2.3c-13.3,1.1-25.9,7.9-38.5,11.9c-12.3,3.9-25.4,5.6-38.3,7.6c-0.7,1.2-2,2-4,1.9c-0.2,0-0.3,0-0.5,0c-1.2,5.4-2.6,10.7-3.6,16.1c-1.4,7.5-3,16.1-0.9,23.6c3.1,11.1,13.2,13.6,23.8,13.1c7.3-0.4,14.6-1.5,21.9-1.5c7.2-0.1,14.5,0.3,21.7,0.4c8.9,0.1,23.9,2.2,30.7-4.9c3.7-3.9,4.2-11.4,4.3-16.5c0.2-5.2-0.2-10.4,0.2-15.6C489,260.7,489.9,248,485.6,240.1z"/><path fill="#EF4823" d="M474.7,315.8c-12.2,1.8-24.8,0.4-37,0.3c-13.5-0.1-33.6,4.1-47.4-1.5c-4.2,11.4-10.3,22-18,31.4c-14.2,17.4-33.5,31.5-54.8,38.9c-6.9,2.4-14.1,4.3-21.3,5.6c2.2,5.9,2.6,12.6,2.3,19c-0.4,8.6-1.2,16.8,1.5,25.1c2.2,6.7,5.4,12.9,8.3,19.4c3.3,7.3,6.8,16.4,6.3,24.9c45.6-6.2,89.7-23.8,120.3-59.7c25.2-29.6,40.6-66.8,47.1-105.2C479.5,314.9,477.1,315.5,474.7,315.8z"/><path fill="#D6E5E5" d="M300.2,461.9c-5.3-12.6-12.8-24.8-12.8-38.8c0-10.5,4.3-26.3-4.6-34.6c-11.5-10.7-32.4-3.5-44.4,2.7c-0.3,0.1-0.6,0.3-0.8,0.4c-4.2,13.7,0,29.9,0.3,43.7c0.3,12.5-2.5,26.1,1.3,38.2c2.8,9,9.5,14.2,18.8,15.9c8,1.4,15.9,3.1,24.1,2.8c6.2-0.2,14.5-0.7,18.8-5.8C306.6,479.7,303.2,469.1,300.2,461.9z"/><path d="M496.4,238.2c-0.8-2.2-1.8-4.1-3-5.8c3.3-12.5,4.9-25.3,4.7-38.2c-0.3-14.5-4.9-28.4-9.2-42.1c-4.7-15-9.9-29.9-14.1-45c-3.2-11.5-10.7-21.2-19.2-29.4c-8.8-8.5-19.1-15.3-29.4-21.9c-11.4-7.3-22.9-13.9-35.9-18.1c-27.5-9-56.6-8.7-85.2-9.7c-3.5-0.1-7-0.3-10.5-0.4c-1,0-1.9,0.2-2.6,0.5c-3.5-1.3-7.2-2-10.7-2.4c-19.7-2.4-40.8,3.2-59.2,9.9h-1.4c-2.2,0-4.1,1.8-4.7,3.9c-25.1,0.1-48.8,5.8-71.4,17.5c-12.5,6.5-24.2,14.3-35.8,22.1c-10.9,7.3-22.3,13.9-33.2,21.2c-8.4,5.7-16.2,12.4-22.3,20.5c-7.4,9.8-11.6,21.1-14.9,32.8c-4.2,14.9-6.4,30.2-7.5,45.6c-1,14.8-4.9,29.1-6.2,43.8c-0.2,2.4,0.9,4.3,2.6,5.3c-1.1,3.4-1.8,6.9-2.3,10.3c-1.3,9.4-0.8,19.2,0,28.6c0.8,9.2,2.1,19.4,11.3,23.8c0.1,0,0.1,0,0.2,0.1c-1,0.3-2,0.5-3,0.8c3.1,19.6,8.9,38.7,16.4,57c9.6,23.2,23,44.7,40.3,62.8c18.1,18.9,41,32.5,65.3,41.8c24.9,9.6,51.4,14.6,77.9,17c1.3,0.1,2.7,0.2,4,0.3v-0.4c2.8,2.9,6.4,5.3,10.9,7.1c8.1,3.2,17.6,4.4,26.3,5c8.1,0.6,16.3,0.3,24-2.4c5.4-1.9,9.6-5.4,12.4-10c0.3,0,0.7-0.1,1-0.1c26.1-3.1,51.9-9.8,75.5-21.3c23.1-11.2,42.9-27.1,59-47.1c26.7-33,41.5-74,47-115.8c1.9-2.8,3-6.1,3.9-9.6c2.6-10.3,1.4-21.7,1.9-32.3C499.6,255.4,499.4,246.4,496.4,238.2z M378.3,45.5c13.3,3.3,25.3,9.1,36.9,16.3c10,6.2,19.8,12.5,28.7,20.1c8.6,7.3,16.1,16.1,19.9,26.9c5,14.2,8.9,28.9,13.5,43.3c4.3,13.5,9,27,9.7,41.2c0.2,3.4,0.2,6.7,0,10.1c-7.8-28.4-20.6-55.4-38.4-79.3c-29.9-40.1-72.2-71.2-120.6-84.5C345,40.2,361.8,41.5,378.3,45.5z M305.2,87.3c1-9.4,2.4-18.8,2.6-28.2c0.1-4.5-0.2-9.1-1.2-13.4c50.6,8.3,95.5,37.7,127.7,77.2c24.1,29.6,39.5,64.2,46.6,100.9c-6.6-1.8-14.2-1.3-21.3,0.8c-11.3,3.3-22.2,8-33.5,11.5c-11,3.4-23,4.6-34.5,6.3c-2.2-7.4-4.9-14.7-8-21.8c-17-39-48.1-71.8-90.3-81.6c5.5-7,8.8-16,10.2-25.6C304.8,104.8,304.3,96,305.2,87.3z M229.1,44.2c8.8-3,17.9-5.4,27-6.9c10.3-1.7,22.2-3,32.2,0.7c7.8,2.8,8.7,11.4,9,18.7c0.3,9.3-1.3,18.6-2.3,27.8c-1.9,16.8,1.1,36.5-11.1,50.1c-6.5,7.3-17.8,9.3-27.1,7.9c-8.9-1.3-14.2-8-17.2-16.1c-4.2-11.3-4.8-24-6.6-35.8c-2-13.5-4.2-27.1-5.7-40.7C229.1,48.6,229.6,46.3,229.1,44.2z M216.9,51.1c1.4,12.2,3.3,24.3,5.1,36.4c1.8,11.9,2.9,24,5.7,35.7c1.3,5.3,3.3,10.6,6.2,15.3c-7.7,1.5-15.3,3.6-22.6,6.2c-24.7,8.9-44.3,25.6-60.4,46c-2.6,3.3-5.1,6.7-7.5,10.1c-1.5,2.1-1.3,4.5-0.1,6.3c-1,3.4-2.1,6.8-2.9,10.3c-0.7,2.9-1.4,5.8-2,8.7c-0.8,0.4-1.5,1.1-1.9,1.9c-12.3-1.1-24.8,0.3-37.1-1.3c-13.7-1.7-27.6-5.2-41.4-3c-3.2,0.5-6.4,1.3-9.4,2.4c2.2-8.5,4.7-17,7.5-25.4c0.2-0.5,0.2-0.9,0.3-1.3c7.8-21.7,17.1-43.1,30.4-62c15.3-21.7,35.9-39.5,58.1-53.9C166.8,69.2,191.3,58,216.9,51.1z M41.4,205c1.2-14.8,2.8-29.2,6.3-43.7c2.7-11.3,6.3-22.6,13-32.3c5.9-8.4,13.8-14.8,22.2-20.5c10-6.8,20.5-12.8,30.6-19.5c11.2-7.4,22.4-14.9,34.2-21.4c6.5-3.6,13.2-6.6,20-9c-1.2,0.6-2.4,1.1-3.5,1.7c-28.9,14.4-55.9,34.1-76.8,58.9c-20.3,24.1-32.9,53.3-43.1,82.8c-0.2,0.7-0.3,1.4-0.3,2.1c-1.5,4.7-3,9.5-4.3,14.2C40.4,214,41,209.5,41.4,205z M35.9,292.3c-1.3-9.3-1.8-19.1-1-28.5c0.6-7.8,2.4-15.8,7.7-21.8c9.9-11.1,27.7-8.9,40.7-7.1c9.3,1.3,18.7,3.2,28,3.2c9.8,0,19.7-0.8,29.4,0.9c0.9,0.2,1.7,0.1,2.5-0.1c2.2,3.8,1.3,10.2,0.7,13.7c-1.2,8-3.9,15.9-6.9,23.4c-3.2,7.9-7.6,12.2-16,14.4c-9.1,2.4-19.1,1.7-28.5,2c-11.4,0.4-21.9,3.7-32.7,7.1c-5.8,1.8-12.1,3.6-18.2,2.4C37.3,301.1,36.4,295.9,35.9,292.3z M216.3,478c-26.6-3.7-52.8-10.8-76.8-23c-23.2-11.8-42.7-28.7-57.9-49.8c-15.1-21-25-45-32.3-69.7c-2.2-7.4-3.9-14.9-5.2-22.5c9.6,0.6,20.2-4,28.5-6.6c9.9-3.1,19.7-3.6,30-3.8c9.9-0.2,19.9-0.8,29-5c1,9.9,3.1,19.7,6.7,29c14.2,36.3,52,54.8,89.1,62.3c-2.5,9-2.1,18.8-1.4,28.1c0.8,11.5,1.4,22.6,1,34.1c-0.3,9.7,0.2,20,3.6,28.6C225.8,479.3,221,478.7,216.3,478z M216.6,375.5c-17.7-5-35.5-12.9-49.4-25.1c-12.7-11.2-20.5-26.8-23.8-43.3c-1.1-5.5-1.7-11.2-2-16.8h-0.4c3.4-4.5,5.6-10,7.5-15.3c4.6-12.6,11.9-35.8-0.1-45.7c2.1-9.1,5-17.9,7-26.9c0-0.1,0-0.2,0-0.2c14.4-19.1,31.1-35.3,53.4-45.1c10.5-4.6,21.9-7.7,33.5-9.3c7.7,5.4,17.9,6.2,27,5c5.6-0.8,10.5-2.6,14.6-5.3v0.6c1.1,0.2,2.2,0.4,3.4,0.6c44.3,8.2,75,45.1,90.2,85.5c1.4,3.6,2.6,7.3,3.7,11c0,0.1-0.1,0.2-0.1,0.3c-3,17.5-10.2,35.5-5.3,53.3c1.2,4.2,3,7.5,5.3,10.1c-6.1,17.8-17.6,33.7-31.9,45.8c-17.4,14.7-38,23-59.6,26.4c-0.9-0.9-1.9-1.7-3-2.5c-14.3-10-34.3-5.2-49.5,1.8v0C230.3,378.9,223.4,377.4,216.6,375.5z M300.8,486.5c-4.4,5-12.7,5.6-18.8,5.8c-8.2,0.2-16.1-1.4-24.1-2.8c-9.3-1.7-15.9-6.9-18.8-15.9c-3.8-12.2-1-25.8-1.3-38.2c-0.3-13.9-4.6-30-0.3-43.7c0.3-0.1,0.6-0.2,0.8-0.4c12-6.2,32.9-13.3,44.4-2.7c8.9,8.2,4.6,24.1,4.6,34.6c0,14.1,7.6,26.3,12.8,38.8C303.2,469.1,306.6,479.7,300.8,486.5z M434.7,419.3c-30.6,35.9-74.6,53.4-120.3,59.7c0.6-8.5-3-17.6-6.3-24.9c-2.9-6.4-6.1-12.7-8.3-19.4c-2.7-8.3-2-16.6-1.5-25.1c0.3-6.5-0.1-13.1-2.3-19c7.2-1.3,14.3-3.1,21.3-5.6c21.2-7.5,40.6-21.5,54.8-38.9c7.7-9.4,13.8-20.1,18-31.4c13.9,5.6,33.9,1.3,47.4,1.5c12.2,0.1,24.9,1.5,37-0.3c2.4-0.4,4.8-0.9,7.1-1.7C475.4,352.5,460,389.7,434.7,419.3z M488.4,269c-0.4,5.2,0,10.4-0.2,15.6c-0.2,5.1-0.6,12.5-4.3,16.5c-6.9,7.2-21.9,5-30.7,4.9c-7.2-0.1-14.5-0.4-21.7-0.4c-7.4,0.1-14.6,1.1-21.9,1.5c-10.6,0.6-20.7-2-23.8-13.1c-2.1-7.5-0.5-16.2,0.9-23.6c1-5.4,2.4-10.7,3.6-16.1c0.2,0,0.3,0,0.5,0c1.9,0.1,3.2-0.7,4-1.9c12.8-2,25.9-3.6,38.3-7.6c12.6-4,25.2-10.8,38.5-11.9c4.2-0.3,7.5,0.5,10,2.3c-0.2,2.7,1.8,4.4,4.2,4.8C489.9,248,489,260.7,488.4,269z"/></svg>