<svg fill="#000000" xmlns="http://www.w3.org/2000/svg" viewBox="0 0 50 50" width="50px" height="50px"><path d="M 43 4 L 7 4 C 4.242188 4 2 6.242188 2 9 L 2 33 C 2 35.757813 4.242188 38 7 38 L 11.140625 38 C 11.480469 40.894531 10.625 42.859375 8.484375 44.144531 C 8.101563 44.375 7.914063 44.835938 8.035156 45.265625 C 8.15625 45.699219 8.550781 46 9 46 C 11.558594 46 17.707031 45.203125 20.683594 38 L 43 38 C 45.757813 38 48 35.757813 48 33 L 48 9 C 48 6.242188 45.757813 4 43 4 Z M 25.707031 28.707031 L 24.292969 27.292969 L 29.585938 22 L 16 22 L 16 20 L 29.585938 20 L 24.292969 14.707031 L 25.707031 13.292969 L 33.414063 21 Z"/></svg>