<svg width="64" height="64" viewBox="0 0 64 64" fill="none" xmlns="http://www.w3.org/2000/svg">
<path d="M58.6666 32.0002C58.6666 46.7268 46.7266 58.6668 31.9999 58.6668C17.2733 58.6668 5.33325 46.7268 5.33325 32.0002C5.33325 17.2735 17.2733 5.3335 31.9999 5.3335C46.7266 5.3335 58.6666 17.2735 58.6666 32.0002Z" fill="#28B351"/>
<path opacity="0.05" d="M42.8959 21.5627L29.3332 35.1254L22.4372 28.2294C21.3959 27.1881 19.7079 27.1881 18.6666 28.2294L16.7812 30.1147C15.7399 31.1561 15.7399 32.8441 16.7812 33.8854L27.4479 44.5521C28.4892 45.5934 30.1772 45.5934 31.2186 44.5521L48.5519 27.2187C49.5932 26.1774 49.5932 24.4894 48.5519 23.4481L46.6666 21.5627C45.6252 20.5214 43.9372 20.5214 42.8959 21.5627Z" fill="black"/>
<path opacity="0.07" d="M27.9187 44.0814L17.252 33.4147C16.4707 32.6334 16.4707 31.3667 17.252 30.5867L19.1373 28.7014C19.9187 27.9201 21.1854 27.9201 21.9654 28.7014L29.3333 36.0681L43.3667 22.0347C44.148 21.2534 45.4147 21.2534 46.1947 22.0347L48.08 23.9201C48.8614 24.7014 48.8614 25.9681 48.08 26.7481L30.7467 44.0814C29.9667 44.8614 28.7 44.8614 27.9187 44.0814Z" fill="black"/>
<path d="M28.3907 43.6097L17.724 32.9431C17.2027 32.4217 17.2027 31.5777 17.724 31.0577L19.6093 29.1724C20.1307 28.6511 20.9747 28.6511 21.4947 29.1724L29.3333 37.0111L43.8387 22.5057C44.36 21.9844 45.204 21.9844 45.724 22.5057L47.6093 24.3911C48.1307 24.9124 48.1307 25.7564 47.6093 26.2764L30.276 43.6097C29.756 44.1311 28.9107 44.1311 28.3907 43.6097Z" fill="white"/>
</svg>
